<?xml version="1.0" encoding="utf-8"?>
<!-- Generator: Adobe Illustrator 24.1.2, SVG Export Plug-In . SVG Version: 6.00 Build 0)  -->
<svg version="1.1" id="Capa_1" xmlns="http://www.w3.org/2000/svg" xmlns:xlink="http://www.w3.org/1999/xlink" x="0px" y="0px"
	 viewBox="0 0 200 200" style="enable-background:new 0 0 200 200;" xml:space="preserve">
<style type="text/css">
	.st0{fill:#FEFEFE;}
	.st1{fill:#3C3C3C;}
	.st2{fill:#4D4D4D;}
	.st3{fill:#9F9F9F;}
	.st4{fill:#A6A6A6;}
	.st5{fill:#DEDEDE;}
	.st6{fill:#7C7C7C;}
	.st7{fill:#020202;}
</style>
<g>
	<path d="M68.1-182.9c21.65,0,43.31,0,64.96,0c11.39,1.13,22.67,2.79,33.81,5.58c44.3,11.11,83.38,31.84,117.49,62.27
		c27.2,24.27,48.74,52.79,64.98,85.26c14.88,29.76,23.97,61.36,27.35,94.49c0.6,5.92,0.94,11.93,0.7,17.93c0,2.24,0,4.48,0,6.72
		c0,4.41,0,8.81,0,13.22c0,2.25,0,4.51,0,6.76c-0.14,35.38-8.91,68.83-22.78,101.12c-10.93,25.46-25.85,48.48-43.69,69.56
		c-21.17,25.02-46.17,45.51-74.68,61.74c-30.49,17.36-63.15,28.44-97.84,33.04c-51.71,6.86-101.5-0.33-149.17-21.83
		c-27.12-12.23-51.41-28.59-73.25-48.76c-50.06-46.23-79.06-103.38-88.83-170.58c-2.62-18.03-3.2-36.23-2.01-54.31
		c4.1-62.02,25.73-117.28,65.55-165.24c23.83-28.7,52.46-51.54,85.41-68.76c25.53-13.35,52.62-22.49,81.22-26.86
		C60.91-182.1,64.66-181.29,68.1-182.9z"/>
	<path class="st0" d="M68.1-182.9c-5.58,3.17-11.99,2.7-17.99,3.89c-43.85,8.67-83.22,26.89-118.09,54.78
		c-45.63,36.49-76.76,82.83-93.93,138.65c-9.92,32.27-14.02,65.37-11.52,98.91c6.15,82.42,40.9,150.41,105.25,202.69
		C-28.97,347.87,15.96,367.64,66,373.5c94.53,11.05,174.53-19.3,239.01-89.14c37.26-40.37,59.35-88.56,68.62-142.65
		c1.79-10.47,2.75-21.07,3.43-31.68c0.27-0.47,0.55-0.48,0.85-0.02c0,89.3-0.03,178.61,0.1,267.91c0,3.42-0.67,4.1-4.09,4.09
		c-183.22-0.11-366.44-0.09-549.65-0.09c-1.38-1.75-0.98-3.82-0.98-5.78c-0.02-184.42-0.02-368.83,0-553.25
		c0-1.96-0.4-4.03,0.98-5.78C-94.46-182.9-13.18-182.9,68.1-182.9z"/>
	<path class="st0" d="M377.06,81.98c-3.23-54.14-19.59-103.85-51.1-148.13c-41.7-58.6-97.58-96.2-168-111.79
		c-7.76-1.72-15.56-3.16-23.47-3.95c-0.69-0.07-1.29-0.21-1.42-1.02c80.28,0,160.57,0.03,240.85-0.1c3.42-0.01,4.1,0.67,4.09,4.09
		c-0.12,86.97-0.1,173.94-0.1,260.91C377.61,82.48,377.33,82.44,377.06,81.98z"/>
	<path class="st1" d="M-175.75-182.9c0,188.27,0,376.54,0,564.81c-0.33,0-0.67,0-1,0c-0.95-1.9-0.46-3.93-0.46-5.9
		c-0.03-87.42-0.03-174.84-0.02-262.26c0-1.9,0-3.81,0-5.71c0-3.99,0-7.98,0-11.98c0-3.99,0-7.98,0-11.98c0-1.9,0-3.81,0-5.71
		c0-85.13,0-170.26,0.02-255.38c0-1.96-0.49-4,0.46-5.9C-176.41-182.9-176.08-182.9-175.75-182.9z"/>
	<path class="st2" d="M-176.78,112.95c0.01,89.65,0.02,179.3,0.03,268.95c-2.09-1.11-0.94-3.04-0.94-4.5
		c-0.07-88.14-0.06-176.27-0.06-264.41C-177.44,112.54-177.12,112.55-176.78,112.95z"/>
	<path class="st2" d="M-176.75-182.9c-0.01,87.32-0.02,174.64-0.03,261.96c-0.34,0.41-0.67,0.4-0.97-0.04
		c0-85.8-0.01-171.61,0.06-257.41C-177.68-179.87-178.84-181.8-176.75-182.9z"/>
	<path class="st3" d="M377.04,103.05c0-4.7,0-9.4,0-14.1c0.31-0.41,0.6-0.37,0.86,0.05c0,4.67,0,9.33,0,14
		C377.64,103.44,377.35,103.44,377.04,103.05z"/>
	<path class="st4" d="M-176.85,84.07c0,3.98,0,7.96,0,11.93c-0.3,0.45-0.6,0.45-0.9,0c0-4,0-8,0-12
		C-177.41,83.55-177.11,83.57-176.85,84.07z"/>
	<path class="st4" d="M-177.75,96c0.3,0,0.6,0,0.9,0c0,3.98,0,7.95,0,11.93c-0.27,0.49-0.56,0.54-0.9,0.06
		C-177.75,104-177.75,100-177.75,96z"/>
	<path class="st5" d="M377.9,89c-0.29-0.01-0.58-0.03-0.86-0.05c0.01-2.32,0.01-4.65,0.02-6.97c0.28-0.01,0.56,0,0.85,0.02
		C377.9,84.34,377.9,86.67,377.9,89z"/>
	<path class="st5" d="M377.04,103.05c0.29-0.02,0.58-0.04,0.86-0.05c0,2.33,0,4.67,0,7c-0.28,0.02-0.56,0.03-0.85,0.02
		C377.05,107.7,377.05,105.38,377.04,103.05z"/>
	<path class="st6" d="M-176.85,84.07c-0.3-0.04-0.6-0.06-0.9-0.06c0-1.67,0-3.33,0-5c0.33-0.02,0.65,0,0.97,0.04
		C-176.8,80.72-176.82,82.4-176.85,84.07z"/>
	<path class="st6" d="M-177.75,108c0.3,0,0.6-0.02,0.9-0.06c0.02,1.67,0.05,3.35,0.07,5.02c0,0-0.48,0.04-0.48,0.04l-0.49,0
		C-177.75,111.33-177.75,109.66-177.75,108z"/>
	<path class="st0" d="M142.51,61.79c16.53-11.82,40.44-10.56,52.08,3.69c10.06-10.61,22.78-13.24,36.54-11.24
		c16.31,2.36,26.69,14.18,27.53,32.36c0.82,17.62,0.21,35.3,0.38,52.95c0.03,2.95-1.61,2.63-3.47,2.62
		c-8.33-0.02-16.65-0.17-24.97,0.07c-3.13,0.09-3.88-0.82-3.84-3.88c0.18-12.82,0.12-25.65,0.04-38.47
		c-0.02-2.81-0.28-5.65-0.73-8.43c-0.96-6.01-3.96-9.19-8.96-9.85c-6.07-0.8-10.98,1.84-13.45,7.21c-1.65,3.58-1.81,7.39-1.81,11.23
		c0,12.66-0.1,25.32,0.07,37.97c0.04,3.15-0.64,4.34-4.07,4.23c-8.15-0.26-16.32-0.22-24.47-0.01c-3.07,0.08-3.97-0.77-3.93-3.88
		c0.18-12.82,0.1-25.65,0.05-38.47c-0.01-2.65-0.14-5.33-0.48-7.96c-0.8-6.24-3.88-9.67-9.02-10.33c-6.21-0.8-11.57,2.03-13.84,7.47
		c-1.43,3.43-1.62,7.1-1.62,10.78c0,12.82-0.1,25.65,0.07,38.47c0.04,3.06-0.77,4-3.89,3.92c-8.49-0.22-16.98-0.19-25.47-0.01
		c-2.74,0.06-3.25-0.9-3.25-3.4c0.08-26.98,0.1-53.96-0.02-80.94c-0.01-3.12,1.25-3.46,3.81-3.42c6.82,0.13,13.66,0.26,20.48-0.03
		C141.04,54.24,144.92,54.29,142.51,61.79z"/>
	<path class="st0" d="M-63.67,62.17c10.35-8.17,21.71-9.74,33.52-7.85c17.26,2.75,27.68,15.91,28.07,35.29
		c0.32,16.32,0,32.65,0.13,48.98c0.02,2.86-0.82,3.68-3.64,3.63c-8.32-0.17-16.66-0.21-24.98,0.02c-3.2,0.09-3.84-1.01-3.83-3.98
		c0.05-14.49,0.15-28.98-0.34-43.45c-0.32-9.31-3.96-12.96-11.51-13.3c-8.32-0.38-14.28,4.52-15.56,12.92
		c-0.35,2.29-0.47,4.64-0.48,6.96c-0.05,12.33-0.13,24.66,0.05,36.98c0.05,3.14-0.89,3.94-3.94,3.87
		c-8.32-0.21-16.65-0.17-24.98-0.01c-2.67,0.05-3.73-0.43-3.71-3.45c0.12-26.99,0.11-53.98,0.02-80.96
		c-0.01-2.65,0.78-3.41,3.38-3.35c6.82,0.16,13.66,0.05,20.48,0.05C-63.95,54.51-63.95,54.51-63.67,62.17z"/>
	<path class="st0" d="M66.62,134.48c-12.85,10.63-26,10.56-39.35,6.36c-11.54-3.63-18.4-14.01-17.97-25.42
		c0.44-11.73,7.22-19.92,19.52-23.44c9.9-2.83,20.09-2.29,30.22-2.52c1.34-0.03,3.22,0.91,3.95-0.92c0.61-1.53-0.62-2.86-1.48-4.04
		c-2.09-2.88-5.19-4.04-8.56-4.54c-9.58-1.43-18.57,0.24-26.62,5.69c-2.11,1.43-2.89,1.32-3.94-0.94
		c-2.65-5.72-5.3-11.46-8.37-16.95c-1.63-2.92-0.49-4.12,1.82-5.4c11.66-6.44,24.22-8.8,37.42-8.6c7.38,0.11,14.58,0.98,21.46,3.79
		c14.37,5.86,20.7,17.4,21.21,32.1c0.57,16.47,0.07,32.97,0.22,49.46c0.03,2.92-1.2,3.15-3.53,3.11
		c-6.82-0.12-13.67-0.33-20.47,0.05C67.13,142.53,64.36,141.52,66.62,134.48z"/>
	<path class="st0" d="M288.62,143.15c-11.04-0.06-18.83-7.86-18.81-18.81c0.02-11.19,7.93-18.77,19.46-18.64
		c11.55,0.13,18.8,7.61,18.68,19.28C307.84,135.91,300.07,143.22,288.62,143.15z"/>
	<path class="st7" d="M49.24,121.49c-0.7-0.15-2.58-0.27-4.23-0.96c-2.88-1.2-4.31-3.48-4.07-6.73c0.23-3.14,2.13-4.89,4.89-5.57
		c5.21-1.27,10.56-1.09,15.88-1.09c2.25,0,2.18,1.38,2.24,2.97C64.21,116.59,58.31,121.57,49.24,121.49z"/>
</g>
</svg>
