<?xml version="1.0" encoding="utf-8"?>
<!-- Generator: Adobe Illustrator 24.1.2, SVG Export Plug-In . SVG Version: 6.00 Build 0)  -->
<svg version="1.1" id="Capa_1" xmlns="http://www.w3.org/2000/svg" xmlns:xlink="http://www.w3.org/1999/xlink" x="0px" y="0px"
	 viewBox="0 0 1125 2436" style="enable-background:new 0 0 1125 2436;" xml:space="preserve">
<g>
	<path d="M222.24,633.26c0.49,0.49,0.74,1.22,0.74,2.21v3.74h-2.71v-3.28c0-0.75-0.27-1.13-0.8-1.13c-0.3,0-0.55,0.11-0.74,0.32
		c-0.19,0.21-0.28,0.55-0.28,1v3.08h-2.71v-6.56h2.58v0.65c0.26-0.26,0.55-0.45,0.89-0.58c0.34-0.13,0.7-0.19,1.09-0.19
		C221.1,632.53,221.75,632.77,222.24,633.26z"/>
	<path d="M229.73,633.3c0.61,0.52,0.91,1.31,0.91,2.38v3.53h-2.52v-0.86c-0.31,0.66-0.93,0.98-1.86,0.98
		c-0.52,0-0.96-0.09-1.33-0.27c-0.36-0.18-0.64-0.42-0.83-0.73s-0.28-0.65-0.28-1.04c0-0.65,0.25-1.14,0.74-1.48s1.25-0.5,2.26-0.5
		h1.09c-0.09-0.51-0.5-0.77-1.24-0.77c-0.3,0-0.6,0.05-0.9,0.14c-0.3,0.09-0.56,0.22-0.78,0.38l-0.86-1.79
		c0.38-0.23,0.83-0.41,1.36-0.55c0.53-0.13,1.06-0.2,1.59-0.2C228.24,632.53,229.12,632.79,229.73,633.3z M227.6,637.54
		c0.15-0.1,0.26-0.26,0.34-0.47v-0.46h-0.67c-0.55,0-0.83,0.18-0.83,0.55c0,0.15,0.06,0.28,0.17,0.38c0.12,0.1,0.27,0.15,0.47,0.15
		C227.27,637.7,227.44,637.65,227.6,637.54z"/>
	<path d="M242.41,633.26c0.48,0.49,0.71,1.22,0.71,2.21v3.74h-2.71v-3.28c0-0.75-0.24-1.13-0.73-1.13c-0.26,0-0.46,0.1-0.62,0.29
		c-0.16,0.19-0.23,0.5-0.23,0.91v3.2h-2.71v-3.28c0-0.75-0.24-1.13-0.73-1.13c-0.26,0-0.46,0.1-0.62,0.29
		c-0.16,0.19-0.23,0.5-0.23,0.91v3.2h-2.71v-6.56h2.58v0.61c0.49-0.49,1.11-0.73,1.86-0.73c0.44,0,0.84,0.08,1.19,0.25
		s0.64,0.41,0.86,0.75c0.26-0.32,0.58-0.57,0.96-0.74c0.38-0.17,0.79-0.26,1.24-0.26C241.3,632.53,241.93,632.77,242.41,633.26z"/>
</g>
</svg>
